<?xml version="1.0" standalone="no"?>
<!DOCTYPE svg PUBLIC "-//W3C//DTD SVG 20010904//EN"
 "http://www.w3.org/TR/2001/REC-SVG-20010904/DTD/svg10.dtd">
<svg version="1.0" xmlns="http://www.w3.org/2000/svg"
 width="852.000000pt" height="852.000000pt" viewBox="0 0 852.000000 852.000000"
 preserveAspectRatio="xMidYMid meet">
<metadata>
Created by potrace 1.11, written by Peter Selinger 2001-2013
</metadata>
<g transform="translate(0.000000,852.000000) scale(0.100000,-0.100000)"
fill="#000000" stroke="none">
<path d="M103 8513 c31 -2 57 -8 57 -13 0 -5 -23 -6 -52 -3 -35 4 -49 3 -45
-4 7 -12 97 -25 182 -28 61 -2 126 -14 142 -27 7 -5 54 -13 105 -18 51 -4 104
-12 118 -18 14 -5 59 -12 100 -16 41 -4 99 -14 128 -22 31 -8 72 -11 98 -7 44
6 44 5 44 -25 0 -17 6 -32 15 -36 24 -9 17 -26 -10 -26 -14 0 -25 5 -25 10 0
6 -11 10 -24 10 -14 0 -28 5 -31 10 -8 13 -25 13 -25 1 0 -5 14 -12 30 -16 17
-4 30 -13 30 -21 0 -19 -25 -18 -44 2 -14 13 -16 13 -16 1 0 -9 -7 -14 -17
-12 -10 2 -24 4 -31 4 -7 1 -11 4 -9 9 3 4 -82 8 -189 10 -107 1 -205 7 -219
12 -15 6 -27 6 -30 -1 -4 -5 -14 -8 -23 -7 -19 3 -45 -46 -64 -119 -7 -27 -18
-52 -24 -58 -12 -11 -74 -165 -74 -183 0 -7 -5 -20 -10 -30 -15 -25 -81 -212
-87 -247 -3 -16 -10 -35 -15 -42 -6 -7 -4 -13 4 -16 10 -5 9 -8 -3 -16 -9 -6
-20 -28 -24 -48 -4 -21 -14 -46 -23 -56 -14 -16 -14 -18 3 -31 18 -13 18 -14
-3 -25 -12 -6 -26 -28 -31 -48 -7 -24 -11 -311 -11 -795 0 -752 0 -758 19
-746 17 10 24 9 46 -12 22 -20 34 -23 90 -22 63 2 65 1 55 -18 -6 -11 -14 -20
-18 -20 -5 0 -17 -8 -28 -18 -39 -36 -91 -72 -96 -66 -4 3 -20 -2 -37 -11
l-31 -16 0 -234 c0 -217 1 -235 18 -236 9 0 28 -3 42 -5 44 -8 143 -25 200
-34 30 -5 71 -11 90 -14 19 -3 64 -10 100 -16 36 -5 106 -16 155 -25 139 -24
286 -47 329 -51 22 -2 48 -6 58 -10 22 -6 44 -10 123 -19 32 -4 68 -9 80 -11
11 -2 49 -9 84 -15 36 -5 67 -12 71 -14 4 -2 33 -7 66 -10 32 -3 84 -10 114
-15 81 -15 289 -49 336 -56 l42 -6 267 253 c147 140 275 258 284 263 9 5 38
31 64 57 55 55 62 56 197 38 107 -15 142 -19 168 -20 24 -2 31 -29 7 -29 -19
0 -55 -39 -55 -61 0 -9 7 -22 15 -29 21 -17 17 -84 -6 -104 -15 -13 -18 -12
-23 7 -6 22 -6 22 -18 2 -6 -11 -16 -24 -22 -28 -7 -6 -4 -7 7 -3 21 7 22 -7
1 -29 -12 -11 -25 -14 -47 -9 -29 6 -30 5 -14 -10 11 -12 24 -15 43 -10 19 5
25 4 20 -4 -10 -17 24 -2 48 20 24 22 36 23 36 3 0 -30 24 -66 49 -72 14 -3
29 -7 32 -9 4 -2 -3 -43 -15 -91 -21 -81 -24 -88 -47 -87 -36 2 -251 45 -275
56 -11 5 -48 11 -82 12 -59 3 -62 2 -62 -20 0 -13 6 -25 13 -26 6 0 23 -2 37
-4 14 -2 81 -12 149 -24 126 -21 169 -27 209 -29 27 -1 29 -33 7 -131 -8 -36
-20 -87 -25 -115 -6 -27 -14 -53 -18 -57 -5 -5 -40 -4 -78 1 -38 6 -87 13
-109 15 -62 9 -103 16 -185 31 -41 8 -98 17 -125 20 -49 6 -51 5 -53 -20 -1
-16 3 -25 11 -24 11 2 97 -5 212 -17 76 -8 150 -25 164 -39 12 -12 12 -18 -3
-40 -16 -24 -22 -26 -54 -19 -40 8 -94 14 -129 15 -13 1 -23 5 -23 10 0 5 -27
9 -59 9 -34 0 -61 5 -63 11 -2 6 -26 13 -53 16 -28 3 -53 11 -57 17 -5 8 -8 7
-8 -2 0 -9 -10 -11 -37 -6 -21 4 -40 10 -43 14 -3 4 -21 10 -40 12 -62 9 -185
30 -200 35 -8 3 -38 6 -67 8 -29 2 -67 8 -85 14 -55 17 -232 43 -260 37 -15
-2 -42 3 -63 14 -20 10 -60 21 -88 25 -94 11 -176 24 -197 32 -8 3 -23 5 -32
4 -10 -1 -18 3 -18 9 0 7 -8 9 -21 5 -18 -6 -20 -4 -14 15 6 19 4 20 -12 12
-15 -8 -18 -6 -18 13 0 19 3 21 23 14 23 -9 32 5 10 14 -10 4 -9 8 2 16 13 10
13 11 0 12 -43 2 -80 8 -130 19 -30 6 -75 13 -100 14 -25 1 -61 7 -80 13 -56
18 -144 27 -136 14 4 -6 12 -9 17 -6 5 4 9 1 9 -5 0 -7 8 -9 21 -5 15 5 19 4
14 -4 -5 -8 1 -10 19 -5 17 4 26 2 26 -6 0 -8 10 -9 30 -5 20 4 30 3 30 -5 0
-6 4 -8 10 -5 5 3 10 2 10 -3 0 -5 15 -13 34 -19 30 -9 33 -9 29 8 -3 11 0 19
6 19 7 0 9 -4 6 -10 -3 -5 0 -10 7 -11 47 -2 104 -12 112 -19 26 -25 -49 -49
-95 -29 -23 9 -33 9 -42 0 -12 -12 -81 -16 -73 -3 2 4 -16 7 -40 7 -24 0 -44
3 -44 8 0 4 -12 7 -26 7 -17 0 -23 4 -18 12 5 7 2 9 -9 5 -9 -3 -18 -1 -21 6
-3 9 -5 9 -5 0 -1 -7 -12 -13 -26 -13 -14 0 -25 -4 -25 -9 0 -5 -9 -11 -19
-14 -15 -3 -18 -1 -14 11 5 13 -1 14 -35 9 -23 -3 -42 -1 -42 4 0 12 -27 12
-35 -1 -3 -5 17 -12 45 -16 29 -4 46 -10 40 -14 -14 -9 98 -30 159 -30 31 0
40 -3 35 -12 -4 -7 -4 -10 1 -6 4 4 16 3 26 -2 25 -14 111 -21 104 -9 -11 16
8 10 31 -12 18 -17 34 -20 98 -20 59 0 78 -3 83 -14 3 -9 19 -15 39 -15 19 0
43 -5 53 -12 11 -6 26 -8 37 -3 22 10 57 7 64 -6 3 -4 36 -10 73 -11 45 -2 67
-7 67 -15 0 -17 37 -17 43 0 4 9 7 9 15 -1 4 -7 24 -14 43 -16 19 -2 61 -10
94 -16 33 -7 78 -14 100 -15 22 -1 62 -7 89 -14 27 -6 51 -9 54 -6 3 2 11 -3
17 -12 11 -15 17 -16 53 -4 31 11 56 12 101 4 42 -7 62 -6 65 1 2 6 5 4 5 -5
1 -14 17 -18 81 -24 44 -4 80 -10 80 -14 0 -4 53 -13 118 -20 64 -8 137 -20
161 -27 25 -7 48 -11 51 -9 4 3 21 0 38 -4 22 -7 32 -6 36 2 2 7 5 4 5 -5 1
-13 9 -18 29 -18 15 0 45 -5 67 -11 22 -7 49 -12 60 -13 18 -1 20 -7 18 -51
-7 -145 -13 -217 -21 -280 -6 -38 -10 -86 -9 -105 1 -19 -4 -96 -11 -170 -6
-74 -14 -191 -16 -260 -3 -69 -11 -147 -19 -175 -27 -91 -5 -235 38 -251 20
-8 20 -74 0 -140 -19 -64 -19 -71 3 -51 27 25 32 21 32 -20 -1 -63 -16 -123
-39 -154 -18 -25 -21 -37 -15 -82 3 -28 13 -62 20 -74 8 -12 14 -29 14 -36 0
-14 -38 -54 -46 -49 -14 8 -22 -3 -26 -35 -4 -30 0 -42 16 -56 19 -17 20 -20
4 -31 -14 -11 -15 -16 -5 -37 7 -13 18 -43 25 -66 7 -24 17 -43 22 -43 6 0 10
-5 10 -11 0 -13 52 -83 86 -116 16 -16 34 -22 61 -21 21 1 89 -2 152 -5 130
-7 135 -6 205 64 26 27 52 49 57 49 4 0 19 11 32 25 l23 26 23 -81 c13 -45 24
-89 25 -98 1 -9 7 -26 13 -37 6 -12 19 -54 28 -95 10 -41 22 -85 27 -97 6 -12
8 -31 5 -42 -3 -12 -2 -19 3 -16 4 3 11 -8 14 -23 25 -103 25 -111 7 -169 -32
-99 -40 -163 -27 -220 7 -32 7 -33 -24 -33 -25 0 -31 4 -26 15 5 13 -1 15 -37
11 -23 -2 -58 -1 -77 4 -19 4 -69 16 -110 25 -41 9 -84 21 -95 25 -21 9 -60
16 -137 26 -27 4 -48 11 -48 16 0 5 -9 6 -20 3 -12 -4 -26 -2 -33 3 -7 6 -41
16 -77 22 -36 7 -74 16 -85 20 -11 5 -63 16 -115 26 -52 9 -99 20 -105 23 -5
3 -38 12 -73 18 -34 7 -90 19 -125 26 -34 6 -66 15 -72 19 -5 3 -32 10 -60 14
-58 9 -51 8 -92 18 -18 4 -33 11 -34 14 0 4 -2 30 -4 57 -3 28 -7 82 -11 120
-3 39 -8 99 -10 135 -2 36 -8 101 -14 145 -6 44 -13 103 -16 130 -26 260 -33
338 -30 344 3 4 1 22 -4 41 -12 51 -12 -98 0 -220 5 -52 11 -156 15 -230 3
-74 11 -206 17 -292 6 -87 8 -166 5 -178 -3 -11 -1 -20 4 -20 5 0 9 -5 9 -11
0 -7 -14 -9 -37 -5 -21 3 -78 11 -126 17 -48 7 -90 16 -93 21 -3 4 -19 8 -36
8 -18 0 -45 4 -62 10 -48 15 -240 60 -257 60 -11 0 -16 9 -16 28 1 15 -2 47
-6 72 -3 25 -9 68 -13 95 -3 28 -11 56 -16 63 -6 6 -8 12 -5 12 4 0 -1 19 -9
43 -9 23 -17 49 -19 57 -8 36 -60 147 -79 168 -18 20 -21 37 -22 120 -2 133
-10 176 -44 212 -26 28 -33 30 -94 30 -53 0 -74 -5 -104 -24 -48 -30 -71 -56
-81 -92 -10 -35 4 -173 19 -188 16 -16 12 -64 -14 -135 -20 -55 -59 -261 -55
-289 6 -35 -1 -39 -48 -31 -26 5 -72 16 -103 24 -180 46 -227 57 -245 56 -11
0 -29 3 -40 8 -40 18 -88 31 -97 25 -5 -3 -15 -1 -21 5 -7 6 -32 12 -55 13
-23 2 -42 6 -42 11 0 4 -11 7 -24 7 -13 0 -41 6 -62 14 -22 7 -63 17 -92 21
l-52 7 0 -141 c0 -78 3 -141 8 -142 23 -2 64 -10 117 -23 33 -8 96 -22 140
-31 44 -9 104 -22 132 -29 44 -11 64 -11 120 1 148 30 170 33 235 31 36 -2 64
0 61 5 -2 4 2 7 10 7 8 0 17 -14 21 -31 9 -45 8 -52 -7 -46 -33 13 -45 -17
-46 -118 -1 -39 -7 -56 -26 -77 -14 -15 -25 -35 -25 -46 0 -10 -5 -23 -11 -29
-18 -18 -1 -73 22 -73 10 0 19 -4 19 -9 0 -4 12 -6 26 -3 22 4 25 9 20 31 -13
56 -15 81 -5 86 5 4 7 10 4 15 -3 5 3 27 15 49 24 48 25 65 5 57 -11 -4 -15 2
-15 20 0 22 2 23 21 13 19 -10 20 -8 14 10 -5 17 -2 21 14 21 12 0 21 -5 21
-10 0 -6 6 -9 13 -8 9 2 14 -33 21 -135 10 -167 6 -187 -33 -187 -19 0 -36 -8
-48 -23 -21 -27 -63 -42 -63 -22 0 28 -36 55 -90 66 -88 18 -93 17 -110 -19
-19 -39 -14 -37 -65 -29 -44 7 -74 39 -56 61 5 6 7 16 3 22 -8 11 -53 40 -65
42 -4 1 -22 8 -41 16 -19 8 -37 12 -40 9 -3 -3 -12 -1 -19 6 -9 7 -35 9 -76 5
-42 -5 -61 -3 -61 4 0 14 -125 53 -145 46 -13 -5 -15 -101 -15 -770 l0 -764
465 0 465 0 0 54 c0 30 -5 56 -11 58 -6 2 -15 55 -21 123 -7 96 -14 129 -34
164 -25 45 -24 61 4 61 62 -1 215 -128 226 -188 3 -19 15 -45 26 -59 11 -14
20 -34 20 -43 0 -10 7 -24 16 -31 13 -11 17 -11 25 2 4 9 17 27 28 40 l19 24
29 -26 c67 -61 103 -81 131 -74 15 4 35 8 44 10 31 7 83 35 118 65 33 28 70
40 70 23 0 -6 42 -8 70 -4 3 1 16 17 29 37 22 32 23 37 9 45 -10 6 -14 17 -10
31 4 17 2 20 -11 15 -9 -3 -19 -2 -22 4 -4 5 1 12 9 15 22 8 20 24 -2 24 -9 0
-29 11 -43 24 -28 26 -34 25 -67 -18 -18 -24 -23 -26 -28 -12 -4 10 -2 28 4
41 10 21 8 25 -11 31 -15 5 -25 1 -35 -15 -15 -23 -32 -28 -32 -10 0 19 35 56
48 51 7 -2 16 5 19 17 3 12 11 21 17 21 7 0 22 13 34 29 14 20 27 28 40 24 14
-3 22 4 32 29 7 18 22 41 34 50 20 16 20 17 2 37 -33 36 -82 61 -96 48 -8 -9
-10 -8 -5 4 4 11 -6 26 -32 46 -21 17 -42 32 -48 34 -32 13 -115 78 -145 115
-19 23 -45 45 -56 48 -34 9 -38 36 -10 63 14 13 29 23 33 23 17 1 73 81 89
127 14 40 15 72 10 200 -7 148 -7 152 14 163 15 8 30 8 53 1 18 -5 57 -15 87
-20 30 -6 127 -27 215 -46 88 -20 169 -38 180 -40 11 -2 61 -14 110 -25 50
-12 108 -25 130 -29 62 -13 188 -42 210 -48 11 -3 43 -9 70 -13 28 -5 64 -13
80 -19 17 -6 44 -13 60 -15 17 -2 37 -6 45 -9 8 -3 25 -7 38 -9 l23 -3 -30
-59 c-17 -33 -37 -66 -44 -75 -20 -24 -97 -158 -97 -169 0 -6 -4 -12 -9 -14
-11 -4 -151 -227 -151 -241 0 -6 -7 -19 -17 -29 -9 -10 -21 -27 -27 -37 -6
-11 -32 -54 -58 -97 -27 -42 -48 -79 -48 -81 0 -3 -16 -27 -35 -53 -19 -26
-35 -50 -35 -52 0 -3 -22 -39 -50 -81 -27 -42 -50 -80 -50 -84 0 -5 -11 -24
-24 -43 -13 -19 -40 -61 -60 -92 l-37 -58 1376 0 c1368 0 1375 0 1375 20 0 14
7 20 21 20 12 0 18 4 13 11 -13 21 19 29 34 8 7 -10 21 -19 30 -19 10 0 23 -9
30 -20 12 -20 23 -20 1832 -20 l1820 0 0 524 -1 525 -22 4 -22 4 23 2 c31 2
32 48 0 53 -13 2 -22 11 -23 24 -1 16 3 20 22 16 21 -4 23 -1 23 31 0 29 -4
36 -22 40 l-23 4 23 2 c12 0 22 6 22 11 0 6 -10 10 -22 11 -22 1 -22 1 2 9 24
8 24 8 3 9 -13 1 -23 6 -23 11 0 6 10 10 23 11 21 1 21 1 -3 9 -24 8 -24 8 -2
9 12 1 22 6 22 12 0 7 -13 9 -37 5 -37 -6 -39 -5 -57 36 l-19 43 -6 -30 c-3
-17 -14 -41 -24 -55 -15 -21 -19 -23 -27 -10 -9 13 -12 13 -21 -2 -17 -29 -28
-21 -56 39 l-26 58 -6 -35 -7 -35 -31 33 c-17 17 -34 32 -37 32 -3 0 -6 -18
-6 -40 l0 -40 -55 0 c-30 0 -55 5 -55 10 0 6 22 10 49 10 l49 0 -28 30 c-31
34 -40 37 -40 15 0 -19 -24 -19 -44 0 -8 8 -19 15 -25 15 -6 0 -11 6 -11 13 0
14 -69 52 -78 43 -8 -9 -32 14 -32 30 0 20 18 17 22 -3 2 -10 4 3 4 29 -1 27
-4 41 -9 35 -6 -9 -10 -9 -14 1 -7 17 -16 15 -31 -8 -10 -16 -10 -24 0 -39 18
-30 -14 -61 -64 -61 -32 0 -38 3 -38 21 0 19 5 21 45 17 59 -4 54 15 -6 23
l-44 5 45 5 c33 4 24 6 -37 7 -77 2 -83 1 -83 -18 0 -32 -16 -23 -35 20 -10
22 -24 40 -32 40 -18 0 -17 28 2 46 19 19 19 25 0 50 -13 17 -14 17 -15 2 0
-10 -4 -18 -10 -18 -5 0 -10 -18 -10 -40 0 -22 5 -40 10 -40 6 0 10 -4 10 -10
0 -5 -18 -10 -40 -10 -22 0 -40 5 -40 10 0 6 -13 10 -30 10 -28 0 -30 2 -30
40 0 22 -4 40 -10 40 -5 0 -10 -9 -10 -20 0 -17 -7 -20 -40 -20 -33 0 -40 3
-40 20 0 13 -7 20 -20 20 -11 0 -20 4 -20 9 0 5 -9 13 -21 16 -18 6 -20 12
-15 48 3 23 6 76 7 117 1 48 7 84 16 99 12 18 12 25 3 31 -9 6 -11 21 -6 51 5
24 10 78 12 119 2 41 7 91 10 110 4 19 8 62 9 95 12 255 20 360 30 395 2 8 6
58 10 110 4 52 8 97 10 100 1 3 5 64 9 135 4 72 11 162 17 200 5 39 12 88 14
110 3 22 7 56 9 75 3 19 0 40 -6 47 -7 9 -7 21 0 40 16 41 26 95 23 121 -1 13
3 30 9 38 14 16 35 20 25 4 -3 -5 3 -10 15 -10 12 0 19 -3 17 -7 -3 -5 7 -8
21 -9 15 -1 59 -4 97 -8 39 -4 79 -7 89 -7 11 0 28 -5 39 -11 11 -6 36 -12 56
-13 20 -2 69 -11 110 -20 41 -9 100 -18 130 -19 31 -2 56 -5 56 -6 0 -1 9 -4
20 -6 72 -12 106 -17 147 -21 27 -3 46 -8 44 -12 -2 -3 21 -7 52 -8 32 -1 76
-4 100 -7 39 -5 42 -3 42 20 0 17 -5 24 -20 24 -11 0 -20 4 -20 8 0 5 -33 14
-72 21 -126 20 -203 36 -216 45 -7 4 -16 6 -18 3 -3 -3 -25 1 -49 8 -24 8 -46
11 -49 8 -3 -4 -16 -1 -29 5 -12 6 -58 13 -101 16 -43 3 -85 11 -92 17 -11 9
-14 8 -14 0 0 -8 -6 -9 -17 -3 -10 6 -43 13 -73 17 -30 4 -59 9 -63 12 -4 3
-35 6 -67 8 -32 2 -67 8 -77 13 -10 5 -24 7 -30 5 -7 -3 -13 0 -13 5 0 6 -9 8
-20 5 -18 -5 -19 -1 -16 43 3 45 2 47 -13 27 -9 -11 -20 -28 -26 -37 -8 -14
-16 -15 -45 -6 -33 10 -122 24 -220 36 -24 3 -47 7 -51 10 -4 2 -35 8 -70 13
-35 5 -131 21 -214 36 -82 15 -175 31 -205 35 -93 14 -312 49 -365 60 -27 5
-93 16 -145 24 -116 18 -382 63 -505 85 l-90 17 3 54 c2 30 12 97 22 148 17
87 22 97 60 132 43 40 48 65 14 65 -17 0 -20 11 -27 85 -5 47 -8 114 -8 150 1
36 1 86 1 113 0 45 1 47 29 47 17 0 32 -4 35 -8 3 -4 36 -7 74 -5 68 2 70 1
77 -24 3 -15 9 -22 13 -17 4 6 14 13 23 17 15 5 74 99 74 117 0 14 36 41 51
38 19 -4 -25 -94 -235 -476 -74 -133 -132 -244 -130 -247 6 -6 134 -30 259
-49 58 -9 150 -23 205 -32 55 -9 111 -18 125 -19 14 -2 57 -8 95 -14 39 -6
104 -16 145 -23 41 -6 109 -12 152 -12 42 -1 74 -4 72 -8 -3 -4 15 -7 38 -7
50 1 161 -9 233 -19 28 -4 67 -3 89 3 35 9 40 8 60 -18 12 -15 35 -30 52 -33
16 -3 34 -12 41 -20 19 -26 50 -8 67 39 9 23 60 175 114 338 55 162 104 304
110 315 19 34 52 56 67 44 26 -22 27 -15 75 480 6 58 19 197 31 310 11 113 24
252 29 310 6 58 17 157 25 220 13 103 27 232 40 360 18 179 57 548 64 610 4
41 8 76 7 77 -1 1 -42 7 -91 13 -50 7 -94 17 -100 22 -7 7 1 9 23 6 29 -4 37
1 33 24 0 4 31 6 70 5 41 -1 73 2 75 8 2 6 10 87 19 180 9 94 20 208 25 255 6
47 19 180 31 295 11 116 29 285 38 378 l17 167 -1517 0 -1518 0 -5 -52 c-3
-29 -11 -303 -18 -608 l-13 -555 -55 0 c-30 0 -86 4 -125 8 -38 5 -92 11 -120
13 -27 3 -63 7 -80 9 -16 2 -77 9 -135 15 -58 7 -179 21 -270 32 -91 10 -199
21 -240 24 -70 5 -136 13 -270 34 -30 5 -109 14 -175 20 -66 5 -158 14 -205
20 -285 31 -450 50 -485 54 -22 3 -71 8 -110 11 -38 3 -80 8 -92 10 -26 6 -99
15 -198 24 l-70 6 0 43 c0 35 -4 44 -21 48 -24 6 -27 39 -40 344 -3 80 -10
189 -15 244 -5 54 -9 124 -9 155 0 71 -8 101 -27 101 -11 0 -13 -3 -5 -13 7
-8 6 -20 -3 -37 -7 -14 -11 -37 -8 -52 6 -33 -4 -78 -17 -78 -6 0 -28 -11 -51
-25 -49 -32 -63 -25 -55 26 5 30 3 39 -8 39 -8 0 -20 26 -32 70 l-18 70 -642
0 c-561 0 -643 -2 -648 -15 -3 -8 -10 -15 -16 -15 -5 0 -10 7 -10 15 0 8 -7
15 -16 15 -10 0 -14 -6 -10 -15 3 -8 1 -15 -5 -15 -6 0 -7 -5 -3 -12 4 -7 3
-8 -5 -4 -6 4 -9 16 -6 25 5 16 -5 18 -92 20 -65 1 -95 -1 -88 -8 6 -5 33 -12
60 -14 40 -3 36 -4 -24 -5 -59 -2 -72 1 -68 12 5 12 -20 14 -146 13 -84 0
-126 -2 -94 -4z m127 -12 c13 -1 13 -2 0 -11 -22 -14 -60 -12 -60 3 0 8 9 13
23 11 12 -1 29 -3 37 -3z m504 -4 c17 -12 17 -14 2 -20 -9 -4 -16 -1 -16 5 0
7 -14 9 -40 5 -30 -4 -40 -2 -40 9 0 18 69 19 94 1z m322 -167 c8 0 14 -4 14
-10 0 -5 -4 -10 -8 -10 -14 0 -32 23 -31 40 1 11 2 11 6 -2 2 -10 11 -18 19
-18z m3904 -1117 c0 -8 -4 -11 -10 -8 -5 3 -10 2 -10 -2 0 -17 24 -33 48 -33
13 0 30 -6 38 -14 15 -16 19 -66 5 -66 -18 0 -23 -59 -7 -76 9 -8 16 -28 16
-43 0 -15 7 -42 15 -59 9 -16 15 -47 15 -69 -1 -21 -1 -51 0 -68 1 -43 -10
-95 -19 -95 -4 0 -14 12 -22 27 -20 39 -67 84 -117 111 -41 23 -42 23 -74 5
-18 -10 -43 -26 -55 -36 -49 -43 -222 -115 -244 -102 -4 3 -15 -7 -24 -22 -14
-21 -16 -32 -7 -55 8 -21 7 -30 -4 -39 -16 -13 -19 -49 -4 -49 6 0 10 -7 10
-15 0 -8 -5 -15 -11 -15 -18 0 -99 63 -99 77 0 7 -4 13 -10 13 -15 0 -12 32 5
54 19 25 19 36 0 36 -21 0 -43 -38 -56 -98 -9 -43 -8 -57 4 -75 8 -12 18 -41
22 -65 5 -34 4 -42 -9 -42 -8 0 -18 4 -21 10 -10 15 -45 -12 -45 -35 0 -12 5
-26 12 -33 6 -6 13 -27 14 -45 l1 -34 -46 3 c-34 3 -52 11 -68 29 -13 15 -33
25 -48 25 -19 0 -26 5 -24 18 3 38 0 44 -18 26 -13 -12 -14 -19 -5 -22 8 -2 9
-9 2 -23 -8 -13 -7 -19 0 -19 6 0 8 -4 5 -10 -3 -5 -19 -10 -36 -10 l-29 0 0
104 c0 100 1 104 23 110 12 3 40 -1 62 -8 38 -14 40 -13 48 7 5 12 10 30 12
41 3 10 8 23 13 30 5 6 15 29 22 50 16 51 72 146 127 219 30 38 74 78 132 117
49 32 95 65 102 72 8 7 37 29 64 47 28 19 53 39 56 43 3 5 36 17 74 28 38 11
73 24 79 30 5 5 18 10 28 10 11 0 18 6 16 13 -1 6 3 22 10 34 13 24 42 21 42
-4z m-15 -501 c10 -6 11 -17 7 -47 -2 -9 -20 -11 -64 -6 -12 1 -9 30 5 46 13
16 36 19 52 7z m-145 -41 c0 -11 4 -22 9 -25 4 -3 11 -18 14 -33 6 -31 38 -73
55 -73 7 0 19 -11 27 -24 22 -33 6 -62 -46 -82 -21 -9 -39 -20 -39 -24 0 -4
-21 -6 -47 -4 -31 3 -55 -2 -71 -12 l-24 -16 6 59 c10 104 30 193 43 193 7 0
22 14 35 30 25 35 38 38 38 11z m-141 -337 c7 -7 -18 -29 -57 -51 l-39 -22 1
22 c1 12 7 26 14 30 7 5 9 14 5 20 -4 7 1 6 10 -2 15 -12 17 -12 11 4 -6 16
-3 17 22 11 16 -4 31 -9 33 -12z m941 -25 c0 -4 -5 -11 -11 -15 -8 -4 -7 -9 2
-15 11 -7 9 -9 -6 -9 l-20 -1 20 -12 c18 -11 15 -13 -25 -17 -26 -3 -44 -10
-43 -16 1 -7 -8 -14 -21 -16 -14 -3 -23 0 -23 9 0 7 4 13 9 13 15 0 38 27 38
44 0 9 8 16 19 16 10 0 21 6 24 13 5 14 37 19 37 6z m-1385 -140 c8 -24 15
-76 15 -114 0 -81 15 -110 60 -120 58 -13 49 -31 -36 -75 -38 -20 -41 -25 -52
-82 -7 -36 -19 -68 -31 -79 -22 -20 -37 -79 -27 -104 3 -8 17 -20 31 -25 33
-13 102 -13 109 -1 4 5 17 8 31 6 14 -1 28 2 31 6 3 5 18 9 34 9 17 0 39 8 50
17 19 17 19 17 0 35 -11 11 -20 26 -19 36 0 14 2 14 6 2 4 -8 13 -21 21 -29
12 -12 15 -12 23 0 5 8 8 26 6 41 -2 15 0 25 5 22 4 -3 8 3 8 12 0 12 3 15 10
8 10 -10 -1 -55 -22 -98 -7 -12 -6 -16 1 -11 6 3 11 -1 11 -10 0 -11 6 -15 18
-11 9 3 37 10 62 16 59 16 157 66 198 101 18 16 38 29 43 29 6 0 8 7 5 16 -5
13 -2 15 15 11 12 -3 29 -2 38 3 38 20 129 60 135 60 4 0 6 -8 4 -18 -2 -11 3
-26 11 -35 7 -9 11 -27 8 -39 -6 -21 -157 -179 -237 -246 -31 -26 -342 -202
-357 -202 -3 0 -20 -11 -37 -23 -17 -13 -53 -32 -81 -42 -27 -10 -68 -26 -90
-36 -22 -10 -59 -21 -82 -25 -40 -6 -45 -4 -75 29 -22 23 -43 65 -60 119 -73
222 -91 309 -85 406 12 196 75 331 175 376 41 19 52 34 72 98 10 32 14 36 25
24 8 -8 21 -34 30 -57z m1499 45 c3 -9 -1 -14 -14 -14 -13 0 -20 7 -20 20 0
22 25 18 34 -6z m-121 -1 c-7 -2 -21 -2 -30 0 -10 3 -4 5 12 5 17 0 24 -2 18
-5z m7 -23 c0 -5 -7 -10 -15 -10 -8 0 -15 5 -15 10 0 6 7 10 15 10 8 0 15 -4
15 -10z m-100 -30 c0 -5 -4 -10 -10 -10 -5 0 -10 5 -10 10 0 6 5 10 10 10 6 0
10 -4 10 -10z m280 -10 c0 -5 -4 -10 -10 -10 -5 0 -10 5 -10 10 0 6 5 10 10
10 6 0 10 -4 10 -10z m-413 -42 c-8 -13 -20 -22 -26 -21 -6 2 -20 -16 -32 -38
-11 -23 -23 -39 -26 -36 -7 8 20 67 30 67 5 0 6 4 2 10 -3 5 7 16 22 24 39 21
48 20 30 -6z m333 3 c0 -6 -4 -13 -10 -16 -5 -3 -10 1 -10 9 0 9 5 16 10 16 6
0 10 -4 10 -9z m-4095 -71 c-22 -8 -47 -2 -40 10 2 4 17 5 32 2 24 -5 25 -6 8
-12z m3425 10 c0 -5 -4 -10 -10 -10 -5 0 -10 5 -10 10 0 6 5 10 10 10 6 0 10
-4 10 -10z m670 -4 c0 -8 -4 -18 -10 -21 -5 -3 -10 3 -10 14 0 12 5 21 10 21
6 0 10 -6 10 -14z m-4025 -6 c-3 -5 -10 -10 -16 -10 -5 0 -9 5 -9 10 0 6 7 10
16 10 8 0 12 -4 9 -10z m94 -6 c42 -9 40 -22 -3 -21 -19 0 -32 5 -29 10 3 5
-4 6 -17 2 -15 -5 -20 -4 -16 4 8 13 21 14 65 5z m84 -22 c16 -18 16 -19 -5
-17 -13 1 -24 9 -26 18 -4 22 11 22 31 -1z m139 -14 c10 -5 33 -9 50 -8 54 0
226 -18 238 -25 6 -4 32 -9 58 -11 26 -3 81 -10 122 -16 41 -6 87 -10 103 -10
15 1 27 -3 27 -8 0 -7 -89 -6 -270 5 -102 6 -161 15 -188 28 -15 8 -56 15 -91
16 -35 1 -72 6 -82 11 -10 6 -26 10 -36 10 -11 0 -28 7 -39 15 -17 13 -14 14
36 8 30 -3 63 -10 72 -15z m677 -94 c8 -7 -48 -16 -59 -9 -19 12 1 25 28 19
15 -4 29 -8 31 -10z m496 -77 c5 -50 3 -72 -14 -112 -11 -27 -21 -45 -22 -40
-7 38 -9 56 -13 100 -2 28 -7 62 -11 76 -4 18 -1 31 10 43 26 26 43 4 50 -67z
m1405 5 c0 -10 -46 -10 -56 1 -4 4 7 7 24 7 18 0 32 -4 32 -8z m-40 -48 c0 -8
-4 -12 -10 -9 -5 3 -10 10 -10 16 0 5 5 9 10 9 6 0 10 -7 10 -16z m-133 -150
c-3 -3 -12 -4 -19 -1 -8 3 -5 6 6 6 11 1 17 -2 13 -5z m-1417 -205 c-14 -19
-16 -29 -8 -31 20 -7 -1 -26 -22 -21 -23 6 -25 23 -8 69 10 29 14 31 34 22
l23 -11 -19 -28z m46 -4 c-10 -32 -12 -33 -20 -15 -6 13 -5 25 4 35 21 25 28
17 16 -20z m2585 -445 c5 0 4 -6 -3 -14 -17 -18 -27 -2 -19 32 5 25 6 25 9 5
2 -13 8 -23 13 -23z m-4746 -100 c3 -5 2 -10 -4 -10 -5 0 -13 5 -16 10 -3 6
-2 10 4 10 5 0 13 -4 16 -10z m-65 -110 c0 -5 -4 -10 -10 -10 -5 0 -10 5 -10
10 0 6 5 10 10 10 6 0 10 -4 10 -10z m1483 -237 c-7 -2 -19 -2 -25 0 -7 3 -2
5 12 5 14 0 19 -2 13 -5z m144 -29 c-3 -3 -12 -4 -19 -1 -8 3 -5 6 6 6 11 1
17 -2 13 -5z m3211 -604 c64 -10 144 -24 177 -30 92 -17 244 -40 300 -46 28
-3 57 -8 65 -11 21 -8 49 -12 98 -14 23 -1 42 -5 42 -8 0 -4 8 -7 18 -8 45 -2
300 -43 420 -68 41 -8 77 -14 80 -13 10 3 84 -9 241 -38 74 -13 161 -27 194
-30 34 -3 69 -10 79 -15 9 -5 23 -8 30 -7 16 4 16 -15 -5 -162 -9 -63 -19
-149 -22 -190 -3 -41 -7 -91 -10 -110 -2 -19 -7 -69 -11 -110 -7 -74 -9 -92
-17 -160 -3 -19 -8 -78 -12 -130 -4 -52 -9 -113 -11 -135 -2 -22 -6 -60 -9
-85 -2 -25 -9 -87 -14 -139 -6 -52 -10 -97 -9 -100 0 -3 -1 -8 -2 -11 -1 -3
-4 -25 -5 -50 -2 -25 -6 -82 -10 -127 -7 -74 -9 -81 -22 -65 -13 16 -13 15 -4
-4 12 -24 11 -83 0 -90 -5 -3 -3 -14 4 -24 8 -14 9 -25 1 -37 -5 -10 -9 -36
-8 -58 1 -22 -1 -44 -4 -50 -6 -9 -9 -40 -11 -118 0 -20 -4 -36 -8 -35 -5 2
-8 -1 -8 -7 0 -5 3 -9 8 -7 4 1 7 -7 7 -18 0 -11 -5 -20 -10 -20 -6 0 -8 -15
-4 -40 6 -39 -7 -56 -20 -27 -3 6 -4 3 -1 -8 2 -11 0 -27 -5 -35 -7 -11 -10
-5 -10 23 0 23 -4 36 -10 32 -5 -3 -10 1 -10 10 0 9 -4 13 -10 10 -5 -3 -10 1
-10 9 0 8 5 18 10 21 6 3 10 14 10 23 0 14 -2 14 -9 3 -7 -11 -13 -9 -32 11
-13 13 -29 33 -36 44 -11 17 -12 15 -13 -16 -1 -19 -6 -44 -11 -55 -6 -15 -8
-8 -5 25 l5 45 -11 -42 c-6 -24 -14 -43 -18 -43 -4 0 -12 19 -18 43 l-11 42 5
-45 c3 -33 1 -40 -5 -25 -8 17 -10 18 -10 3 -1 -26 -20 -22 -50 10 l-26 27 -3
-38 c-2 -25 -7 -36 -15 -33 -7 3 -20 9 -29 12 -13 5 -18 17 -18 45 0 39 0 39
-38 39 -21 0 -42 3 -46 7 -3 4 -12 8 -19 9 -7 2 -26 8 -44 15 -22 9 -43 10
-70 3 -36 -8 -38 -12 -43 -54 l-5 -45 -32 33 c-36 37 -43 39 -43 12 0 -17 -7
-20 -40 -20 -36 0 -40 -3 -40 -25 0 -14 -5 -23 -12 -21 -7 1 -10 1 -5 -1 4 -3
7 -11 7 -19 0 -10 14 -14 48 -16 l47 -1 -45 -7 -45 -7 43 -1 c23 -1 42 -7 42
-13 0 -17 -72 -1 -88 19 -11 15 -14 15 -22 2 -9 -13 -11 -13 -20 0 -9 13 -11
13 -20 0 -8 -11 -9 -8 -4 12 5 22 2 29 -12 35 -11 3 -30 18 -44 32 l-25 26 -3
-27 c-2 -16 -8 -28 -13 -28 -14 0 -69 56 -69 69 0 6 -4 11 -10 11 -15 0 -12
-77 3 -84 6 -3 -25 -4 -70 -3 -46 1 -83 6 -83 10 0 5 -15 23 -32 40 -21 19
-28 32 -20 34 39 14 -19 43 -91 44 -29 1 -44 3 -34 6 9 2 17 11 17 19 0 16
-36 17 -115 4 -49 -9 -49 -9 13 -5 37 3 62 1 62 -5 0 -6 -27 -10 -60 -10 -38
0 -60 -4 -60 -11 0 -8 18 -10 60 -6 34 4 60 3 60 -2 0 -5 10 -11 23 -14 12 -2
-14 -2 -58 1 -50 3 -94 12 -117 23 -21 11 -48 19 -60 20 -21 1 -21 1 5 11 26
9 27 12 27 89 l0 79 -50 0 -50 0 0 40 c0 22 -4 40 -10 40 -6 0 -10 -33 -10
-80 0 -47 4 -80 10 -80 6 0 10 7 10 15 0 11 11 15 40 15 27 0 40 -4 40 -14 0
-8 -16 -16 -40 -20 -41 -6 -56 -26 -20 -26 11 0 20 -4 20 -10 0 -5 9 -10 20
-10 27 0 25 -17 -2 -23 -13 -2 -31 -8 -40 -12 -11 -4 -18 -3 -18 4 0 6 9 11
20 11 11 0 20 4 20 9 0 10 -48 21 -91 21 l-29 0 0 81 c0 60 -3 80 -12 76 -7
-2 -13 -10 -13 -18 0 -8 -4 -20 -9 -28 -5 -7 -11 -45 -14 -82 -3 -47 -9 -69
-18 -69 -7 0 -15 -10 -17 -22 -2 -13 -3 -6 -1 15 3 21 0 37 -6 37 -5 0 -10 7
-10 15 0 8 5 15 10 15 6 0 10 23 10 50 0 33 4 50 13 50 8 0 7 4 -3 10 -13 9
-13 12 1 23 9 7 16 26 16 42 0 92 14 239 23 245 8 5 5 21 -8 51 -35 76 -42
181 -27 397 7 102 6 122 -6 122 -11 0 -11 2 1 10 12 8 13 11 1 19 -9 6 -10 10
-2 16 8 4 9 11 2 18 -5 7 -12 37 -15 67 -3 30 -10 98 -16 150 -6 52 -11 107
-10 121 0 14 -8 43 -19 64 -13 28 -16 47 -11 71 5 20 4 32 -1 28 -5 -3 -9 0
-9 5 0 6 4 11 9 11 10 0 27 39 23 54 -2 4 2 14 8 20 5 7 7 16 3 19 -3 4 -2 7
4 7 6 0 10 6 9 13 -1 15 46 170 55 177 3 3 9 21 12 40 4 19 20 80 36 134 28
93 44 121 63 110 4 -3 61 -14 126 -24z m-2622 -177 l-15 -28 -1 46 c0 25 6 51
13 58 19 19 22 -42 3 -76z m-6 -143 c-6 -12 -9 -24 -6 -27 3 -3 -1 -15 -9 -27
-23 -32 -19 -36 41 -36 74 0 138 -17 163 -44 19 -20 21 -38 26 -183 4 -136 3
-162 -10 -167 -8 -3 -68 -5 -133 -5 -125 0 -202 -12 -239 -37 l-22 -14 0 182
c0 135 3 188 13 200 15 20 92 57 120 58 11 0 16 5 13 14 -3 7 1 23 9 35 8 12
13 25 10 29 -6 10 24 56 31 49 2 -3 -1 -15 -7 -27z m58 -562 c-3 -20 -10 -23
-50 -26 -51 -2 -51 -2 -42 23 5 13 8 14 15 3 7 -10 9 -10 9 2 0 10 12 16 36
18 32 2 35 0 32 -20z m2 -261 c0 -32 -6 -61 -15 -73 -14 -17 -15 -14 -13 41 1
66 6 85 19 85 5 0 9 -24 9 -53z m227 -74 c-4 -3 -2 -12 4 -20 7 -8 8 -13 1
-13 -12 0 -23 26 -15 34 4 3 9 6 11 6 3 0 2 -3 -1 -7z m-217 -57 c0 -8 -9 -24
-20 -37 -17 -21 -19 -22 -20 -6 0 23 18 57 30 57 6 0 10 -6 10 -14z m240 -64
c8 -82 -4 -112 -43 -112 -47 0 -167 -29 -208 -51 -21 -10 -60 -19 -92 -20 -31
-1 -57 -5 -57 -10 0 -4 -8 -5 -18 -2 -10 2 -31 -3 -47 -11 -41 -22 -54 -20
-48 5 3 12 21 28 39 35 19 8 34 18 34 23 0 10 47 29 70 29 77 -1 139 25 220
93 94 79 124 97 135 87 5 -5 12 -35 15 -66z m1399 -295 c-107 -100 -183 -162
-191 -159 -5 1 -7 -1 -4 -6 6 -11 -59 -73 -94 -91 -37 -17 -164 -11 -168 9 -2
15 22 32 107 77 61 33 82 49 74 56 -3 4 7 7 23 7 20 0 25 3 15 9 -11 7 -9 10
8 16 11 3 25 4 30 1 5 -4 11 -1 13 5 2 6 16 12 31 12 15 0 30 4 33 8 3 5 10 7
15 4 5 -4 9 0 9 7 0 7 20 22 43 32 23 11 55 32 71 48 16 15 32 25 35 22 3 -3
-19 -29 -50 -57z m-999 46 c0 -5 -14 -23 -31 -42 -26 -28 -33 -31 -44 -20 -13
14 -18 32 -16 57 1 13 91 18 91 5z m945 -364 c-4 -18 -3 -29 4 -29 6 0 11 5
11 12 0 6 3 9 6 6 9 -10 11 -298 2 -298 -4 0 -8 -18 -8 -40 0 -33 3 -40 19
-40 11 0 22 5 24 10 3 6 4 5 3 -2 -1 -7 -13 -15 -26 -18 -20 -5 -21 -7 -7 -19
9 -7 20 -10 25 -7 25 15 30 -79 6 -104 -12 -12 -14 -12 -14 6 0 11 5 25 11 31
13 13 2 56 -12 47 -6 -4 -6 -11 1 -19 8 -10 5 -17 -12 -29 -12 -9 -17 -16 -10
-16 6 0 12 -9 12 -20 0 -11 7 -20 15 -20 8 0 16 -10 16 -22 l2 -23 4 23 c14
71 30 -42 23 -163 -1 -11 -1 -41 0 -67 0 -27 -4 -48 -10 -48 -17 0 -11 -18 8
-23 13 -4 11 -5 -5 -6 -19 -1 -23 4 -23 29 0 17 -4 30 -10 30 -5 0 -10 16 -10
35 0 27 5 38 23 46 l22 10 -23 -5 c-17 -3 -24 2 -29 22 -4 15 -6 35 -5 45 0 9
-3 17 -8 17 -9 0 -6 32 5 50 3 6 0 10 -7 10 -10 0 -10 2 1 9 11 7 10 10 -4 18
-9 6 -18 23 -20 39 -3 42 -23 110 -51 176 -29 70 -44 134 -33 145 7 7 34 96
61 200 12 47 33 48 23 2z m935 -169 c0 -5 -7 -10 -15 -10 -8 0 -15 5 -15 10 0
6 7 10 15 10 8 0 15 -4 15 -10z m-150 -127 c-11 -17 -11 -17 -6 0 3 10 7 26 7
35 1 15 2 15 6 0 2 -10 -1 -25 -7 -35z m35 8 c-3 -12 -10 -21 -15 -21 -4 0 -3
11 3 24 14 29 22 27 12 -3z m53 22 c-21 -5 -24 -20 -5 -26 6 -2 4 -3 -5 -2
-10 2 -18 -2 -18 -8 0 -6 -2 -8 -5 -6 -2 3 -2 15 2 27 3 15 13 22 27 21 17 -1
17 -2 4 -6z m59 -9 c-3 -3 -12 -4 -19 -1 -8 3 -5 6 6 6 11 1 17 -2 13 -5z
m-251 -62 c-12 -11 -18 7 -10 30 l8 23 4 -23 c2 -13 1 -26 -2 -30z m254 28 c0
-5 -2 -10 -4 -10 -3 0 -8 5 -11 10 -3 6 -1 10 4 10 6 0 11 -4 11 -10z m205 1
c3 -5 30 -7 60 -4 47 5 55 3 55 -11 0 -13 -10 -16 -49 -16 -46 0 -111 -25
-111 -42 0 -5 -18 -8 -40 -8 -22 0 -40 5 -40 10 0 6 18 10 40 10 22 0 40 4 40
9 0 5 11 12 25 15 42 11 28 24 -32 31 -83 9 -87 13 -16 14 34 1 64 -3 68 -8z
m895 -41 c0 -30 -4 -40 -16 -40 -9 0 -23 -8 -30 -17 -12 -17 -14 -17 -30 -1
-17 16 -17 19 -1 36 9 10 17 28 17 40 0 18 6 22 30 22 28 0 30 -2 30 -40z
m-1150 20 c0 -5 -4 -10 -10 -10 -5 0 -10 5 -10 10 0 6 5 10 10 10 6 0 10 -4
10 -10z m1250 -45 l0 -45 -40 0 c-22 0 -40 5 -40 10 0 11 65 80 75 80 3 0 5
-20 5 -45z m491 -15 c12 0 11 -71 -1 -90 -9 -13 -11 -13 -20 0 -6 10 -6 16 0
18 13 5 13 32 0 32 -5 0 -10 5 -10 11 0 5 5 7 10 4 13 -8 13 1 0 26 -6 11 -7
25 -3 32 5 8 9 5 11 -10 2 -13 8 -23 13 -23z m-1741 20 c0 -5 -4 -10 -10 -10
-5 0 -10 5 -10 10 0 6 5 10 10 10 6 0 10 -4 10 -10z m39 -21 c7 10 9 8 8 -10
-2 -21 -7 -24 -37 -24 -27 0 -36 4 -36 16 0 9 6 15 12 12 7 -2 15 1 19 7 6 9
10 9 16 -1 8 -12 10 -12 18 0z m911 -14 c-8 -10 -28 -14 -59 -13 l-46 1 45 5
c35 3 41 6 25 12 -16 7 -14 9 14 9 29 1 32 -1 21 -14z m557 -107 c-2 -24 -4
-5 -4 42 0 47 2 66 4 43 2 -24 2 -62 0 -85z m30 70 c-2 -13 -4 -5 -4 17 -1 22
1 32 4 23 2 -10 2 -28 0 -40z m-1027 33 c0 -4 21 -7 48 -6 31 2 34 1 10 -2
-21 -2 -38 -8 -38 -13 0 -5 17 -11 38 -13 24 -3 21 -4 -10 -2 -43 2 -65 -8
-37 -17 6 -2 -8 -3 -30 -3 -22 0 -35 3 -28 7 9 6 9 10 -2 17 -12 8 -12 11 0
25 15 16 49 22 49 7z m1830 -21 c0 -11 -4 -20 -10 -20 -5 0 -10 9 -10 20 0 11
5 20 10 20 6 0 10 -9 10 -20z m-763 -57 c-3 -10 -5 -4 -5 12 0 17 2 24 5 18 2
-7 2 -21 0 -30z m-777 17 c0 -5 -4 -10 -10 -10 -5 0 -10 5 -10 10 0 6 5 10 10
10 6 0 10 -4 10 -10z m40 0 c0 -5 -4 -10 -10 -10 -5 0 -10 5 -10 10 0 6 5 10
10 10 6 0 10 -4 10 -10z m-1030 -20 c0 -11 -4 -20 -10 -20 -5 0 -10 2 -10 4 0
2 -3 11 -6 20 -4 11 -1 16 10 16 9 0 16 -8 16 -20z m497 -17 c-3 -10 -5 -4 -5
12 0 17 2 24 5 18 2 -7 2 -21 0 -30z m30 15 c-3 -8 -6 -5 -6 6 -1 11 2 17 5
13 3 -3 4 -12 1 -19z m313 -18 c0 -33 -3 -40 -20 -40 -17 0 -20 7 -20 40 0 33
3 40 20 40 17 0 20 -7 20 -40z m600 30 c0 -5 -4 -10 -9 -10 -6 0 -13 5 -16 10
-3 6 1 10 9 10 9 0 16 -4 16 -10z m287 -52 c-2 -13 -4 -3 -4 22 0 25 2 35 4
23 2 -13 2 -33 0 -45z m498 52 c-3 -5 -10 -10 -16 -10 -5 0 -9 5 -9 10 0 6 7
10 16 10 8 0 12 -4 9 -10z m-1258 -42 c-3 -7 -5 -2 -5 12 0 14 2 19 5 13 2 -7
2 -19 0 -25z m1233 11 c0 -5 -4 -9 -10 -9 -5 0 -10 7 -10 16 0 8 5 12 10 9 6
-3 10 -10 10 -16z m37 -11 c-3 -7 -5 -2 -5 12 0 14 2 19 5 13 2 -7 2 -19 0
-25z m-1227 12 c0 -5 -4 -10 -10 -10 -5 0 -10 5 -10 10 0 6 5 10 10 10 6 0 10
-4 10 -10z m1520 0 c0 -5 -4 -10 -10 -10 -5 0 -10 5 -10 10 0 6 5 10 10 10 6
0 10 -4 10 -10z m-729 -28 c6 -16 5 -20 -7 -15 -9 3 -14 0 -12 -7 2 -7 -2 -14
-8 -17 -11 -4 -17 44 -7 60 8 13 26 3 34 -21z m705 -9 c-7 -7 -26 7 -26 19 0
6 6 6 15 -2 9 -7 13 -15 11 -17z m49 8 c-3 -6 -11 -11 -17 -11 -6 0 -6 6 2 15
14 17 26 13 15 -4z m-1138 -73 c-2 -13 -4 -3 -4 22 0 25 2 35 4 23 2 -13 2
-33 0 -45z m503 30 c0 -19 -16 -5 -17 14 -2 18 0 20 7 8 5 -8 10 -18 10 -22z
m524 24 c-5 -4 -17 -15 -26 -24 -15 -16 -16 -16 -14 5 1 16 8 23 25 24 13 0
20 -2 15 -5z m104 -9 c-10 -2 -26 -2 -35 0 -10 3 -2 5 17 5 19 0 27 -2 18 -5z
m-5 -20 c-13 -2 -33 -2 -45 0 -13 2 -3 4 22 4 25 0 35 -2 23 -4z m10 -20 c-7
-2 -21 -2 -30 0 -10 3 -4 5 12 5 17 0 24 -2 18 -5z m-88 -11 c-8 -8 -65 -10
-60 -2 2 4 18 7 35 7 16 0 28 -3 25 -5z m-699 -46 c-5 -28 -3 -35 11 -39 14
-4 13 -5 -4 -6 -20 -1 -23 4 -23 39 0 23 5 40 11 40 7 0 9 -12 5 -34z m1271 4
c0 -20 -3 -26 -9 -18 -6 10 -10 10 -18 -2 -9 -13 -11 -13 -20 0 -9 13 -11 13
-20 0 -5 -8 -10 -10 -10 -5 0 6 5 17 10 25 9 13 11 13 20 0 8 -13 12 -12 27 7
10 13 18 23 19 23 0 0 1 -14 1 -30z m-1689 3 c-10 -2 -28 -2 -40 0 -13 2 -5 4
17 4 22 1 32 -1 23 -4z m452 -14 c0 -6 -4 -7 -10 -4 -5 3 -10 11 -10 16 0 6 5
7 10 4 6 -3 10 -11 10 -16z m107 15 c-3 -3 -12 -4 -19 -1 -8 3 -5 6 6 6 11 1
17 -2 13 -5z m636 -1 c-13 -2 -33 -2 -45 0 -13 2 -3 4 22 4 25 0 35 -2 23 -4z
m-7003 -53 c0 -5 -4 -10 -10 -10 -5 0 -10 5 -10 10 0 6 5 10 10 10 6 0 10 -4
10 -10z m5900 -6 c0 -12 -6 -15 -22 -10 -13 3 -31 6 -40 6 -10 0 -18 5 -18 10
0 6 18 10 40 10 30 0 40 -4 40 -16z m1197 0 c-3 -3 -12 -4 -19 -1 -8 3 -5 6 6
6 11 1 17 -2 13 -5z m453 2 c0 -11 -19 -15 -25 -6 -3 5 1 10 9 10 9 0 16 -2
16 -4z m-1160 -26 c0 -5 -7 -7 -15 -4 -8 4 -12 10 -9 15 6 11 24 2 24 -11z
m-1050 0 c0 -5 -18 -10 -40 -10 -22 0 -40 5 -40 10 0 6 18 10 40 10 22 0 40
-4 40 -10z m2172 -22 c-9 -9 -12 -7 -12 12 0 19 3 21 12 12 9 -9 9 -15 0 -24z
m-2735 -50 c-2 -13 -4 -3 -4 22 0 25 2 35 4 23 2 -13 2 -33 0 -45z m2390 30
c-3 -7 -5 -2 -5 12 0 14 2 19 5 13 2 -7 2 -19 0 -25z m378 2 c3 -5 -1 -10 -10
-10 -9 0 -13 5 -10 10 3 6 8 10 10 10 2 0 7 -4 10 -10z m-3055 -14 c0 -3 -4
-8 -10 -11 -5 -3 -10 -1 -10 4 0 6 5 11 10 11 6 0 10 -2 10 -4z m30 0 c0 -3
-4 -8 -10 -11 -5 -3 -10 -1 -10 4 0 6 5 11 10 11 6 0 10 -2 10 -4z m533 -3
c-7 -2 -19 -2 -25 0 -7 3 -2 5 12 5 14 0 19 -2 13 -5z m2367 -9 c0 -8 -4 -12
-10 -9 -5 3 -10 10 -10 16 0 5 5 9 10 9 6 0 10 -7 10 -16z m67 -51 c-2 -16 -4
-5 -4 22 0 28 2 40 4 28 2 -13 2 -35 0 -50z m-5297 25 c0 -4 23 -8 50 -8 28 0
50 -3 50 -7 -1 -19 -19 -34 -59 -48 -54 -19 -61 -19 -61 0 0 9 -13 24 -30 33
-43 24 -38 41 10 39 22 -1 40 -5 40 -9z m1710 2 c0 -5 -4 -10 -9 -10 -6 0 -13
5 -16 10 -3 6 1 10 9 10 9 0 16 -4 16 -10z m577 -77 c-3 -10 -5 -4 -5 12 0 17
2 24 5 18 2 -7 2 -21 0 -30z m30 5 c-3 -7 -5 -2 -5 12 0 14 2 19 5 13 2 -7 2
-19 0 -25z m-4389 -51 c15 -8 45 -12 67 -10 34 3 38 2 25 -10 -27 -24 -176
-117 -188 -117 -7 0 -12 -4 -12 -10 0 -5 -8 -10 -17 -10 -15 0 -15 2 -4 9 8 5
16 30 19 56 3 44 34 111 56 127 6 4 14 1 19 -7 4 -8 20 -21 35 -28z m5190 16
c-10 -2 -26 -2 -35 0 -10 3 -2 5 17 5 19 0 27 -2 18 -5z m-923 -23 c3 -5 2
-10 -4 -10 -5 0 -13 5 -16 10 -3 6 -2 10 4 10 5 0 13 -4 16 -10z m72 -26 c-9
-10 -38 16 -31 28 4 6 13 4 22 -6 9 -8 13 -19 9 -22z m-4154 -6 c9 2 17 0 17
-5 0 -16 -15 -29 -52 -46 -21 -10 -42 -25 -47 -35 -6 -10 -11 -12 -11 -4 0 7
8 25 17 39 l18 26 -30 -18 c-27 -17 -25 -14 10 23 30 32 42 39 50 29 6 -7 18
-11 28 -9z m4097 1 c0 -17 -19 -19 -34 -3 -21 21 -20 22 9 16 14 -2 25 -8 25
-13z m33 5 c8 -8 -3 -34 -14 -34 -5 0 -9 9 -9 20 0 19 11 26 23 14z m583 -41
c-10 -10 -19 5 -10 18 6 11 8 11 12 0 2 -7 1 -15 -2 -18z m-61 7 c3 -5 1 -10
-4 -10 -6 0 -11 5 -11 10 0 6 2 10 4 10 3 0 8 -4 11 -10z m-4591 -10 c14 -5
26 -14 26 -19 0 -23 -111 -103 -124 -90 -8 8 19 77 39 99 21 23 24 24 59 10z
m4250 -9 c3 -5 16 -7 29 -5 l22 5 -23 -13 c-16 -8 -26 -8 -30 -1 -4 5 -14 13
-22 16 -12 4 -12 6 2 6 9 1 19 -3 22 -8z m89 -13 c3 -8 -5 -14 -20 -14 -19 -2
-22 1 -12 12 14 17 25 18 32 2z m88 -18 c17 0 29 -20 12 -20 -5 0 -19 -3 -33
-5 -22 -5 -22 -4 -5 4 18 9 18 10 -7 10 -15 1 -30 6 -34 12 -4 8 0 9 15 4 14
-4 21 -2 22 7 0 10 2 10 6 1 2 -7 13 -13 24 -13z m157 -17 c-1 -5 -23 -5 -48
-2 l-45 6 43 1 c26 1 42 7 43 15 0 10 2 10 6 0 2 -7 3 -16 1 -20z m-91 -19
c-3 -3 -12 -4 -19 -1 -8 3 -5 6 6 6 11 1 17 -2 13 -5z m103 -13 c0 -6 -4 -12
-8 -15 -5 -3 -9 1 -9 9 0 8 4 15 9 15 4 0 8 -4 8 -9z m70 -25 c0 -3 -4 -8 -10
-11 -5 -3 -10 -1 -10 4 0 6 5 11 10 11 6 0 10 -2 10 -4z m-4494 -21 c-3 -9 0
-15 9 -15 11 0 12 -5 5 -26 -12 -31 -27 -46 -61 -61 -22 -9 -29 -8 -41 6 -8 9
-12 23 -10 30 3 8 0 11 -6 7 -6 -3 -13 -2 -16 3 -9 14 44 52 64 46 9 -3 25 2
36 10 24 18 27 18 20 0z m4564 -10 c0 -8 -2 -15 -4 -15 -2 0 -6 7 -10 15 -3 8
-1 15 4 15 6 0 10 -7 10 -15z m-2800 -15 c0 -5 -4 -10 -10 -10 -5 0 -10 5 -10
10 0 6 5 10 10 10 6 0 10 -4 10 -10z m-60 -30 c0 -5 -4 -10 -10 -10 -5 0 -10
5 -10 10 0 6 5 10 10 10 6 0 10 -4 10 -10z m-570 -34 c0 -15 -24 -29 -33 -19
-7 6 14 32 26 33 4 0 7 -6 7 -14z m157 -78 c-2 -13 -4 -3 -4 22 0 25 2 35 4
23 2 -13 2 -33 0 -45z m-163 25 c-1 -15 2 -33 7 -39 11 -13 2 -44 -13 -44 -5
0 -6 -10 -3 -22 5 -18 4 -20 -4 -8 -7 10 -11 11 -11 3 0 -7 -5 -13 -10 -13 -6
0 -8 12 -5 28 4 20 3 22 -3 7 -9 -19 -9 -19 -20 0 -10 18 -11 18 -12 3 0 -10
-5 -18 -11 -18 -5 0 -7 -5 -3 -11 5 -8 9 -8 14 1 5 8 9 8 13 -3 6 -17 -16 -41
-27 -30 -4 4 -4 -11 0 -34 5 -33 2 -46 -17 -72 -12 -17 -27 -31 -31 -31 -5 0
-8 26 -7 58 2 40 10 70 28 102 14 25 29 54 32 65 3 11 13 19 22 19 12 -1 17 6
17 22 0 16 8 28 23 34 12 5 23 9 23 9 1 1 0 -11 -2 -26z m-1054 -57 c0 -3 -4
-8 -10 -11 -5 -3 -10 -1 -10 4 0 6 5 11 10 11 6 0 10 -2 10 -4z m1240 -81 c0
-8 -7 -15 -15 -15 -8 0 -15 7 -15 15 0 8 7 15 15 15 8 0 15 -7 15 -15z m3185
-95 c3 -5 1 -10 -4 -10 -6 0 -11 5 -11 10 0 6 2 10 4 10 3 0 8 -4 11 -10z
m-3548 -73 c0 -9 -4 -17 -9 -17 -4 0 -8 9 -8 20 0 11 -5 20 -11 20 -5 0 -7 5
-4 10 9 14 32 -10 32 -33z m-727 -24 c0 -9 -31 -43 -40 -43 -4 0 -7 7 -7 15 0
8 7 15 14 15 8 0 11 5 8 10 -3 6 1 10 9 10 9 0 16 -3 16 -7z m673 -44 c-6 -6
-14 -5 -22 5 -18 22 -4 40 16 20 10 -10 12 -19 6 -25z m37 31 c0 -5 -4 -10
-10 -10 -5 0 -10 5 -10 10 0 6 5 10 10 10 6 0 10 -4 10 -10z m380 -29 c0 -6
-4 -13 -10 -16 -5 -3 -10 1 -10 9 0 9 5 16 10 16 6 0 10 -4 10 -9z m-1193 -37
c-21 -20 -45 -34 -55 -32 -12 3 -3 13 32 36 64 41 70 40 23 -4z m753 -18 c9
-9 -8 -56 -20 -56 -4 0 -12 12 -19 26 -9 21 -8 31 6 56 18 29 18 29 21 6 2
-13 7 -27 12 -32z m2646 7 c-10 -10 -19 5 -10 18 6 11 8 11 12 0 2 -7 1 -15
-2 -18z m-48 -13 c13 0 12 -3 -4 -15 -10 -8 -26 -14 -34 -15 -13 0 -13 1 0 10
10 6 11 10 3 10 -7 0 -13 5 -13 11 0 6 7 8 16 5 9 -3 23 -6 32 -6z m52 -20 c0
-5 -2 -10 -4 -10 -3 0 -8 5 -11 10 -3 6 -1 10 4 10 6 0 11 -4 11 -10z m-2667
-67 c-7 -2 -19 -2 -25 0 -7 3 -2 5 12 5 14 0 19 -2 13 -5z m-78 -13 c-3 -5 1
-10 9 -10 24 0 19 -26 -9 -48 -14 -11 -25 -25 -25 -31 0 -6 -9 -11 -19 -11
-14 0 -18 5 -14 20 3 11 9 17 14 14 10 -6 33 44 30 64 -1 6 3 12 9 12 6 0 8
-4 5 -10z m102 -27 c-3 -10 -5 -4 -5 12 0 17 2 24 5 18 2 -7 2 -21 0 -30z
m-1592 -44 c-10 -15 -25 -10 -19 6 4 8 10 12 15 9 5 -3 7 -10 4 -15z"/>
<path d="M4740 6991 c0 -11 4 -22 10 -26 17 -10 0 -31 -38 -48 -30 -13 -46
-15 -72 -7 -19 6 -38 10 -43 10 -14 0 12 -37 39 -55 23 -15 33 -16 65 -6 38
11 65 41 51 55 -4 4 1 12 11 17 20 11 23 49 5 67 -17 17 -28 15 -28 -7z"/>
<path d="M4415 6764 c-37 -19 -76 -60 -93 -98 -19 -43 -10 -41 37 9 23 25 60
54 81 65 21 11 41 24 45 30 10 15 -36 12 -70 -6z"/>
<path d="M4051 5823 c-18 -72 -21 -111 -12 -134 9 -24 44 -69 54 -69 6 0 0
124 -9 170 -4 19 -6 40 -5 47 1 6 -3 14 -8 18 -6 3 -14 -11 -20 -32z"/>
<path d="M5424 1979 c-3 -6 -1 -16 5 -22 8 -8 11 -5 11 11 0 24 -5 28 -16 11z"/>
<path d="M5716 1785 c4 -9 15 -20 25 -26 16 -8 19 -6 19 16 0 20 -5 25 -25 25
-18 0 -23 -4 -19 -15z"/>
<path d="M7132 1755 c-1 -27 -4 -68 -7 -90 l-5 -40 11 40 c5 22 8 63 6 90 l-3
50 -2 -50z"/>
<path d="M6085 1750 c-10 -15 5 -32 22 -25 9 3 24 -2 34 -11 17 -15 18 -15 16
4 0 11 -5 18 -9 16 -5 -3 -15 2 -24 10 -18 18 -30 20 -39 6z m25 -10 c0 -5 -4
-10 -10 -10 -5 0 -10 5 -10 10 0 6 5 10 10 10 6 0 10 -4 10 -10z"/>
<path d="M6346 1704 c-3 -9 -6 -27 -6 -40 0 -13 -4 -24 -10 -24 -12 0 -13 -77
-1 -84 22 -14 39 7 43 54 8 81 -8 140 -26 94z"/>
<path d="M7140 1651 c0 -11 5 -23 10 -26 6 -4 10 5 10 19 0 14 -4 26 -10 26
-5 0 -10 -9 -10 -19z"/>
<path d="M6865 1650 c-3 -5 -1 -10 4 -10 6 0 11 5 11 10 0 6 -2 10 -4 10 -3 0
-8 -4 -11 -10z"/>
<path d="M6990 1625 c0 -8 5 -15 10 -15 6 0 10 7 10 15 0 8 -4 15 -10 15 -5 0
-10 -7 -10 -15z"/>
<path d="M7140 1591 c0 -6 5 -13 10 -16 6 -3 10 1 10 9 0 9 -4 16 -10 16 -5 0
-10 -4 -10 -9z"/>
<path d="M7141 1544 c0 -11 3 -14 6 -6 3 7 2 16 -1 19 -3 4 -6 -2 -5 -13z"/>
<path d="M6350 1535 c0 -8 5 -15 10 -15 6 0 10 7 10 15 0 8 -4 15 -10 15 -5 0
-10 -7 -10 -15z"/>
<path d="M5550 1540 c0 -5 5 -10 10 -10 6 0 10 5 10 10 0 6 -4 10 -10 10 -5 0
-10 -4 -10 -10z"/>
<path d="M6020 1520 c0 -5 9 -10 20 -10 11 0 20 5 20 10 0 6 -9 10 -20 10 -11
0 -20 -4 -20 -10z"/>
<path d="M2280 210 c0 -5 7 -10 16 -10 8 0 12 5 9 10 -3 6 -10 10 -16 10 -5 0
-9 -4 -9 -10z"/>
<path d="M1948 8513 c6 -2 9 -10 6 -15 -4 -7 -2 -8 4 -4 18 11 14 26 -5 25
-11 0 -13 -3 -5 -6z"/>
<path d="M2408 7638 c5 -5 16 -8 23 -6 8 3 3 7 -10 11 -17 4 -21 3 -13 -5z"/>
<path d="M2828 7593 c7 -3 16 -2 19 1 4 3 -2 6 -13 5 -11 0 -14 -3 -6 -6z"/>
<path d="M2888 7583 c6 -2 18 -2 25 0 6 3 1 5 -13 5 -14 0 -19 -2 -12 -5z"/>
<path d="M2961 7575 c10 -9 143 -24 153 -17 6 4 -11 10 -39 14 -61 8 -120 10
-114 3z"/>
<path d="M3348 7533 c6 -2 18 -2 25 0 6 3 1 5 -13 5 -14 0 -19 -2 -12 -5z"/>
<path d="M3413 7523 c9 -2 23 -2 30 0 6 3 -1 5 -18 5 -16 0 -22 -2 -12 -5z"/>
<path d="M3560 7510 c0 -5 7 -10 15 -10 8 0 15 5 15 10 0 6 -7 10 -15 10 -8 0
-15 -4 -15 -10z"/>
<path d="M3608 7503 c7 -3 16 -2 19 1 4 3 -2 6 -13 5 -11 0 -14 -3 -6 -6z"/>
<path d="M3708 7493 c7 -3 16 -2 19 1 4 3 -2 6 -13 5 -11 0 -14 -3 -6 -6z"/>
<path d="M3778 7483 c7 -3 16 -2 19 1 4 3 -2 6 -13 5 -11 0 -14 -3 -6 -6z"/>
<path d="M3828 7473 c7 -3 16 -2 19 1 4 3 -2 6 -13 5 -11 0 -14 -3 -6 -6z"/>
<path d="M3870 7476 c0 -2 11 -6 25 -8 14 -3 25 -1 25 3 0 5 -11 9 -25 9 -14
0 -25 -2 -25 -4z"/>
<path d="M3970 7460 c19 -13 30 -13 30 0 0 6 -10 10 -22 10 -19 0 -20 -2 -8
-10z"/>
<path d="M4058 7453 c7 -3 16 -2 19 1 4 3 -2 6 -13 5 -11 0 -14 -3 -6 -6z"/>
<path d="M4178 7433 c7 -3 16 -2 19 1 4 3 -2 6 -13 5 -11 0 -14 -3 -6 -6z"/>
<path d="M4610 7390 l-25 -8 28 -1 c15 -1 27 4 27 9 0 6 -1 10 -2 9 -2 -1 -14
-5 -28 -9z"/>
<path d="M4780 7370 c0 -5 12 -10 28 -9 24 0 25 1 7 9 -27 12 -35 12 -35 0z"/>
<path d="M80 5769 c0 -5 5 -7 10 -4 6 3 10 8 10 11 0 2 -4 4 -10 4 -5 0 -10
-5 -10 -11z"/>
<path d="M2725 5259 c-9 -14 4 -27 13 -13 4 6 14 14 22 17 10 4 8 6 -7 6 -12
1 -25 -4 -28 -10z"/>
<path d="M240 4970 c0 -5 5 -10 10 -10 6 0 10 5 10 10 0 6 -4 10 -10 10 -5 0
-10 -4 -10 -10z"/>
<path d="M395 4961 c-3 -5 0 -13 6 -17 7 -4 9 -3 5 4 -3 6 2 13 11 15 16 4 16
5 1 6 -9 0 -19 -3 -23 -8z"/>
<path d="M450 4939 c0 -7 9 -9 24 -5 13 3 26 1 28 -4 2 -6 22 -8 53 -3 42 6
46 8 25 14 -41 12 -130 10 -130 -2z"/>
<path d="M78 4918 c6 -6 18 -8 28 -6 14 3 12 5 -9 10 -19 3 -25 2 -19 -4z"/>
<path d="M80 4890 c0 -12 43 -23 67 -17 11 3 7 5 -12 6 -23 1 -27 3 -15 11 12
8 9 10 -12 10 -16 0 -28 -4 -28 -10z"/>
<path d="M5738 4883 c7 -3 16 -2 19 1 4 3 -2 6 -13 5 -11 0 -14 -3 -6 -6z"/>
<path d="M212 4860 c0 -14 2 -19 5 -12 2 6 2 18 0 25 -3 6 -5 1 -5 -13z"/>
<path d="M240 4863 c0 -8 15 -13 40 -13 27 0 40 4 40 14 0 9 -13 13 -40 12
-25 -1 -40 -6 -40 -13z"/>
<path d="M383 4859 c-29 -10 -30 -29 -2 -29 11 0 18 4 14 9 -3 5 3 11 12 13
10 2 14 6 8 10 -5 3 -20 2 -32 -3z"/>
<path d="M5655 4841 c3 -5 -3 -12 -12 -15 -10 -3 -6 -4 10 -2 15 2 53 -3 85
-10 51 -12 58 -12 70 3 19 26 14 38 -7 19 -17 -16 -23 -16 -79 -2 -70 19 -75
19 -67 7z"/>
<path d="M848 4813 c7 -3 16 -2 19 1 4 3 -2 6 -13 5 -11 0 -14 -3 -6 -6z"/>
<path d="M1260 4810 l-35 -7 38 -2 c20 0 37 4 37 9 0 6 -1 9 -2 9 -2 -1 -19
-5 -38 -9z"/>
<path d="M1384 4775 c1 -11 7 -19 14 -17 6 1 12 -3 12 -9 0 -5 4 -8 10 -4 5 3
7 12 3 21 -4 11 -9 12 -18 4 -10 -8 -15 -7 -18 7 -3 15 -4 14 -3 -2z"/>
<path d="M1447 4769 c7 -7 15 -10 18 -7 3 3 -2 9 -12 12 -14 6 -15 5 -6 -5z"/>
<path d="M1488 4743 c7 -3 16 -2 19 1 4 3 -2 6 -13 5 -11 0 -14 -3 -6 -6z"/>
<path d="M1932 3420 c0 -14 2 -19 5 -12 2 6 2 18 0 25 -3 6 -5 1 -5 -13z"/>
<path d="M1937 3318 c8 -57 13 -61 13 -10 0 22 -4 43 -9 46 -5 4 -7 -12 -4
-36z"/>
<path d="M1945 3237 c-4 -10 -5 -21 -1 -24 10 -10 18 4 13 24 -4 17 -4 17 -12
0z"/>
<path d="M1952 3170 c0 -19 2 -27 5 -17 2 9 2 25 0 35 -3 9 -5 1 -5 -18z"/>
<path d="M1713 3083 c9 -2 25 -2 35 0 9 3 1 5 -18 5 -19 0 -27 -2 -17 -5z"/>
<path d="M1921 3034 c0 -11 3 -14 6 -6 3 7 2 16 -1 19 -3 4 -6 -2 -5 -13z"/>
<path d="M1983 2755 c0 -22 2 -30 4 -17 2 12 2 30 0 40 -3 9 -5 -1 -4 -23z"/>
<path d="M2680 2557 c0 -13 8 -31 19 -41 17 -16 19 -15 31 15 11 26 11 32 -1
40 -27 17 -49 10 -49 -14z"/>
<path d="M7608 1773 c7 -3 16 -2 19 1 4 3 -2 6 -13 5 -11 0 -14 -3 -6 -6z"/>
<path d="M7600 1739 c0 -5 5 -7 10 -4 6 3 10 8 10 11 0 2 -4 4 -10 4 -5 0 -10
-5 -10 -11z"/>
<path d="M7950 1705 c0 -8 5 -15 10 -15 6 0 10 7 10 15 0 8 -4 15 -10 15 -5 0
-10 -7 -10 -15z"/>
<path d="M8488 1683 c6 -2 18 -2 25 0 6 3 1 5 -13 5 -14 0 -19 -2 -12 -5z"/>
<path d="M7688 1633 c7 -3 16 -2 19 1 4 3 -2 6 -13 5 -11 0 -14 -3 -6 -6z"/>
<path d="M7730 1620 c0 -5 7 -10 15 -10 8 0 15 5 15 10 0 6 -7 10 -15 10 -8 0
-15 -4 -15 -10z"/>
<path d="M7680 1600 c0 -5 7 -10 15 -10 8 0 15 5 15 10 0 6 -7 10 -15 10 -8 0
-15 -4 -15 -10z"/>
<path d="M7740 1580 c0 -5 5 -10 10 -10 6 0 10 5 10 10 0 6 -4 10 -10 10 -5 0
-10 -4 -10 -10z"/>
<path d="M7778 1533 c12 -2 30 -2 40 0 9 3 -1 5 -23 4 -22 0 -30 -2 -17 -4z"/>
<path d="M8221 1494 c0 -11 3 -14 6 -6 3 7 2 16 -1 19 -3 4 -6 -2 -5 -13z"/>
<path d="M8080 1490 c0 -5 5 -10 11 -10 5 0 7 5 4 10 -3 6 -8 10 -11 10 -2 0
-4 -4 -4 -10z"/>
<path d="M8488 1453 c6 -2 18 -2 25 0 6 3 1 5 -13 5 -14 0 -19 -2 -12 -5z"/>
<path d="M8320 1410 c0 -5 5 -10 11 -10 5 0 7 5 4 10 -3 6 -8 10 -11 10 -2 0
-4 -4 -4 -10z"/>
<path d="M8488 1373 c6 -2 18 -2 25 0 6 3 1 5 -13 5 -14 0 -19 -2 -12 -5z"/>
<path d="M8488 1343 c6 -2 18 -2 25 0 6 3 1 5 -13 5 -14 0 -19 -2 -12 -5z"/>
<path d="M8488 1123 c6 -2 18 -2 25 0 6 3 1 5 -13 5 -14 0 -19 -2 -12 -5z"/>
<path d="M1720 625 c-6 -8 -9 -19 -5 -25 9 -15 -34 -72 -48 -64 -7 4 -9 4 -5
0 4 -5 3 -19 -2 -32 -6 -15 -6 -24 0 -24 6 0 10 5 10 11 0 14 30 38 48 39 6 0
21 9 32 20 16 16 19 28 14 55 -7 37 -24 45 -44 20z"/>
<path d="M1912 428 c-7 -7 -12 -16 -12 -20 0 -15 15 -8 28 12 13 22 3 27 -16
8z"/>
<path d="M1650 415 c7 -9 15 -13 17 -11 7 7 -7 26 -19 26 -6 0 -6 -6 2 -15z"/>
<path d="M1746 365 c-4 -13 -2 -14 14 -5 23 13 26 20 6 20 -8 0 -16 -7 -20
-15z"/>
<path d="M1781 366 c-8 -10 -9 -16 -1 -21 5 -3 13 1 16 10 9 22 -1 29 -15 11z"/>
<path d="M1752 249 c-18 -33 -19 -41 -7 -45 14 -6 95 50 95 65 0 16 -14 20
-27 10 -9 -8 -17 -8 -26 0 -11 8 -18 2 -35 -30z"/>
<path d="M1975 277 c-33 -5 -65 -13 -72 -19 -7 -5 -17 -7 -23 -3 -5 3 -10 0
-10 -8 0 -15 -41 -67 -53 -67 -4 0 -20 -12 -35 -26 -15 -14 -40 -32 -56 -41
-16 -8 -39 -24 -50 -36 -12 -11 -15 -17 -8 -13 6 4 12 2 12 -3 0 -6 7 -11 15
-11 19 0 19 -9 -2 -32 -25 -28 5 -23 52 10 64 43 345 253 345 257 0 5 -39 2
-115 -8z"/>
<path d="M1465 60 c-3 -5 -1 -10 4 -10 6 0 11 5 11 10 0 6 -2 10 -4 10 -3 0
-8 -4 -11 -10z"/>
</g>
</svg>
